<svg width="125" height="120" viewBox="0 0 125 120" fill="none" xmlns="http://www.w3.org/2000/svg">
<path d="M85.1577 2.99962C88.3878 11.499 97.8822 35.6404 86.2324 43.2051C81.3849 46.3528 72.9477 47.9282 67.3311 45.6755C55.2696 40.8379 55.8799 20.767 71.4027 28.0782C80.1082 32.1785 82.0005 44.1925 83.2232 52.7182C85.0256 65.2856 79.7818 74.8314 72.659 84.6425C69.0417 89.625 47.1472 108.803 47.0254 106.922" stroke="#AE9B7B" stroke-width="5" stroke-linecap="round"/>
<path d="M39.9035 115.03C39.8458 113.09 39.8825 98.2229 39.6404 100.036C39.3235 102.41 39.242 104.892 38.6323 107.211C37.911 109.955 37.8924 112.838 36.8738 115.482C35.9801 117.802 48.4866 113.972 50.4662 112.817" stroke="#AE9B7B" stroke-width="5" stroke-linecap="round"/>
</svg>
