<svg width="162" height="62" viewBox="0 0 162 62" fill="none" xmlns="http://www.w3.org/2000/svg">
<path d="M147.072 53.7493C137.127 49.8599 131.418 43.1909 127.957 34.9166C127.614 34.0959 127.176 33.3111 126.851 32.4885C123.408 23.6915 116.12 17.6217 106.765 13.1021C101.783 10.6939 96.293 9.73408 90.3995 10.9006C89.1418 11.1486 87.877 11.7342 86.845 12.407C85.7376 13.1288 85.1141 12.9868 84.3541 12.2111C81.3501 9.1557 82.6766 4.3672 87.1913 2.15484C89.902 0.821101 92.8423 0.524391 95.8332 0.753151C103.517 1.33854 110.401 3.43437 116.103 7.6894C117.649 8.83982 119.183 10.0067 120.762 11.1279C126.32 15.0769 130.278 19.9541 132.889 25.64C134.282 28.6599 135.699 31.6771 137.206 34.6592C139.279 38.7492 142.374 42.2391 146.363 45.1628C148.357 46.6271 150.576 47.6947 153.359 48.0122C154.414 48.1281 155.336 48.8506 156.316 49.3014C156.839 49.5462 157.323 49.9483 157.883 50.0257C161.001 50.4501 162.392 52.9392 160.397 55.0943C159.336 56.245 157.776 57.1994 156.227 57.9177C152.203 59.7862 147.784 60.6456 143.314 61.138C127.081 62.9295 111.651 61.2245 97.2892 55.1621C87.5958 51.072 77.86 47.0478 68.3177 42.7474C63.6086 40.6263 59.1974 38.0442 54.8144 35.4949C47.9823 31.525 41.1109 27.6513 33.2136 25.1389C27.2507 23.2449 21.0772 21.9301 14.6417 21.695C11.2961 21.5709 7.85457 22.0544 4.49895 22.5286C3.15436 22.7196 1.86717 23.5578 0.648433 24.2252C-0.59375 24.9054 -1.28463 25.8069 -0.411546 27.0553C-0.242707 27.2974 -0.320905 27.7806 -0.515607 28.0467C-0.618004 28.1904 -1.22838 28.1695 -1.56996 28.1093C-4.2869 27.6009 -6.12301 25.5936 -5.4759 23.3083C-5.04541 21.7764 -4.20161 20.1641 -3.01425 18.9181C2.14885 13.5116 9.10454 11.6077 16.9733 12.071C28.92 12.7735 39.6621 16.1736 49.3894 21.5566C53.712 23.9491 57.827 26.604 61.9058 29.2678C66.7854 32.4528 72.0047 35.1621 77.5253 37.5582C84.1395 40.4285 90.7403 43.3461 97.0882 46.5667C111.727 53.9929 127.767 56.0559 144.978 54.072C145.669 53.9822 146.369 53.8556 147.072 53.7493Z" fill="#AE9B7B"/>
</svg>
