<svg width="98" height="71" viewBox="0 0 98 71" fill="none" xmlns="http://www.w3.org/2000/svg">
<path d="M-7.66748 58.1568C-1.1517 53.9195 6.20768 52.6596 13.7701 52.1237C14.787 52.0494 15.7995 51.8876 17.3166 51.7053C16.548 49.462 16.0847 47.3744 15.1375 45.5362C13.5506 42.4522 11.5276 39.592 9.9272 36.5077C8.70448 34.1519 7.50506 31.6758 6.93295 29.1152C6.05362 25.1831 8.48641 21.834 12.4283 20.9422C16.0526 20.116 19.6352 20.6388 23.066 21.8295C26.5034 23.027 29.8245 24.5573 33.3494 26.0056C33.1213 24.9519 32.8874 23.8643 32.6535 22.7768C31.6958 18.2381 31.3702 13.689 32.8375 9.21328C34.3123 4.70414 37.0482 1.32931 41.9845 0.456576C45.6444 -0.187316 48.7818 1.17032 51.2411 3.79332C53.5302 6.23727 55.7357 8.79993 57.6338 11.5494C61.0607 16.5149 64.1249 21.7329 67.5448 26.7117C71.0296 31.7794 74.7195 36.7114 78.396 41.643C79.1105 42.602 80.1051 43.3868 81.0672 44.1305C82.6292 45.3264 83.6417 45.1646 84.7202 43.4931C86.5692 40.6259 86.9293 37.3708 87.1087 34.0842C83.9462 33.4311 83.339 32.4817 83.951 29.3607C84.5313 26.427 86.5819 24.0756 89.0245 23.7158C92.0002 23.2758 94.2768 24.6514 95.5363 27.1425C96.5783 29.2115 97.4307 31.5913 97.5463 33.8714C97.8382 39.716 96.1723 45.1136 92.3441 49.6557C87.7808 55.0654 81.3606 55.8794 75.7595 51.5494C73.2292 49.5895 70.8971 47.2452 68.9259 44.7222C65.5953 40.4444 62.5053 35.9646 59.5242 31.4338C55.1136 24.7434 50.5102 18.2294 44.9264 12.4556C44.3962 11.9045 43.7971 11.4187 43.0881 10.7689C41.5508 12.7643 41.3609 14.9021 41.5955 16.9972C41.9714 20.3856 42.6237 23.7409 43.1546 27.1132C43.4372 28.9139 43.8945 30.7192 43.9484 32.5275C44.0552 36.1843 41.4493 38.6893 37.7939 38.3862C36.1237 38.2488 34.4294 37.7481 32.8662 37.1164C29.3004 35.6872 25.8207 34.052 22.2839 32.5429C20.9011 31.9495 19.4752 31.4692 17.7869 31.2507C18.3399 32.2189 18.9336 33.168 19.4389 34.1618C21.3959 38.0077 23.4954 41.8035 25.2008 45.7638C26.0251 47.6727 26.2428 49.9017 26.4434 52.016C26.9395 57.248 24.5615 61.0754 19.5962 62.8072C17.2561 63.6197 14.7528 64.2466 12.2893 64.3774C4.89895 64.7566 -1.84477 66.8989 -7.99329 70.9711C-7.88905 66.695 -7.77827 62.4259 -7.66748 58.1568Z" fill="#AE9B7B"/>
</svg>
