<svg width="120" height="75" viewBox="0 0 120 75" fill="none" xmlns="http://www.w3.org/2000/svg">
<path d="M11.033 44.4704C13.2517 48.0829 15.9095 50.9443 19.1184 53.28C30.971 61.8944 44.1265 64.3578 58.2498 61.2335C69.5366 58.7325 80.3394 54.722 90.2264 48.6011C93.8894 46.333 97.2993 43.5766 100.575 40.7452C105.697 36.3066 108.117 30.381 108.899 23.7193C108.951 23.2611 108.906 22.788 108.906 21.9919C108.139 22.5101 107.551 22.9156 106.956 23.3062C98.6021 28.8638 90.3456 34.5793 81.8582 39.9116C78.3962 42.0896 74.4875 43.5992 70.6682 45.1238C68.1071 46.1452 65.8586 45.2665 64.794 43.3814C63.7219 41.4888 64.0941 39.0329 66.082 37.2755C67.9581 35.6232 70.013 34.1436 72.1274 32.8218C75.232 30.8917 78.4408 29.1192 81.6571 27.3768C91.1273 22.2472 99.6519 15.7883 107.722 8.66849C108.177 8.26294 108.638 7.85739 109.137 7.5044C113.656 4.29748 119.642 6.71581 119.895 12.2434C120.55 26.3779 118.347 39.9642 107.283 49.8928C89.817 65.5745 69.5142 75.0225 45.7122 75C33.6735 74.9849 22.5133 71.4175 12.6114 64.2902C7.48171 60.6026 3.53579 55.9687 1.18314 50.0055C-0.417557 45.9349 -0.29842 41.8793 0.967246 37.7937C1.54796 35.9161 3.07423 35.0449 4.80894 34.4591C8.01777 33.3776 11.234 32.3261 14.4205 31.192C31.3134 25.1687 46.5461 16.2239 60.2674 4.62792C61.615 3.48635 62.9402 2.31474 64.3473 1.25578C66.3575 -0.253805 68.2932 -0.38146 69.9981 0.760114C71.6658 1.87165 72.4773 4.11725 71.8445 6.4004C71.4796 7.69969 70.9958 9.029 70.2513 10.133C69.075 11.8679 67.839 13.6554 66.2755 15.0072C51.9289 27.3317 36.257 37.358 18.0091 42.788C15.7904 43.4189 13.5346 43.8621 11.033 44.4704Z" fill="#AE9B7B"/>
</svg>
