<svg width="56" height="56" viewBox="0 0 56 56" fill="none" xmlns="http://www.w3.org/2000/svg">
<path d="M0.692667 36.9332C0.482445 31.9586 0.349129 26.9797 0.0466155 22.0095C-0.302044 16.1799 1.21566 14.3015 7.64535 12.1554C19.1152 8.32514 30.5287 4.36967 41.9525 0.440114C44.6443 -0.48398 46.2235 0.0126127 47.3977 2.25807C47.531 2.51285 47.8335 2.78058 48.1309 2.88421C50.8279 3.79967 52.0431 5.64354 52.3456 7.90196C52.7045 10.5879 52.6738 13.3127 53.0788 15.9943C53.8889 21.3618 54.8888 26.7077 55.8014 32.0623C56.5757 36.605 55.1759 39.0146 50.0024 40.4352C39.2811 43.3759 29.1648 47.4264 19.146 51.6971C16.2798 52.9192 13.3367 54.016 10.3834 55.0826C9.20407 55.5101 7.92224 55.8771 6.65578 55.9764C3.65628 56.2139 1.08234 54.6378 0.385023 52.0771C0.026108 50.7601 -0.0200388 49.3566 0.0158526 47.9921C0.113272 44.3044 0.33376 40.6209 0.50809 36.9375C0.569618 36.9375 0.631139 36.9332 0.692667 36.9332ZM40.6501 7.39241C40.2399 7.51332 39.8861 7.58241 39.5682 7.71196C30.1442 11.6458 20.7252 15.5883 11.296 19.5136C10.5885 19.8072 10.3731 20.17 10.5115 20.8134C10.7269 21.8152 10.9628 22.83 10.9781 23.8447C11.1063 30.6632 11.173 37.4773 11.2653 44.2957C11.2704 44.7621 11.2653 45.2241 11.2653 45.8416C11.8344 45.6991 12.2754 45.6214 12.6907 45.4789C16.1414 44.3 19.6587 43.2421 23.012 41.8948C29.5391 39.2737 36.2303 37.0498 43.0907 35.1282C47.9771 33.7593 47.5003 34.5668 46.2184 30.335C43.9419 22.7868 41.0706 15.3552 40.6501 7.39241Z" fill="#AE9B7B"/>
</svg>
