<svg width="77" height="104" viewBox="0 0 77 104" fill="none" xmlns="http://www.w3.org/2000/svg">
<path d="M76.01 103.607C75.3612 97.9656 74.6715 92.3267 74.092 86.6727C73.6668 82.5495 73.3928 78.4084 73.0117 73.7787C71.4382 74.3761 70.1267 74.8461 68.84 75.3604C54.7188 80.923 40.6285 86.5802 26.439 91.9976C22.4091 93.533 18.1706 94.7176 13.9255 95.4332C5.34072 96.8952 -0.332748 91.8569 0.345714 83.1324C2.13965 59.97 4.18201 36.8311 6.22433 13.6923C6.47064 10.9206 7.1353 8.14858 7.91584 5.47483C8.95952 1.94028 11.5629 0.106117 14.6634 0.340104C17.6665 0.564021 20.2513 2.87224 20.6927 6.37228C21.128 9.85338 21.3143 13.4053 21.1391 16.9077C20.2445 35.4203 19.2084 53.9164 18.2289 72.4254C18.1654 73.5771 18.1899 74.7419 18.1692 76.089C18.9314 75.9554 19.4569 75.9305 19.9423 75.7825C32.7013 71.785 45.4727 67.8254 58.2165 63.7491C62.519 62.376 66.7721 60.8515 70.9633 59.1692C72.1017 58.7138 73.178 57.6189 73.842 56.5435C76.2244 52.7185 79.369 50.8438 83.2067 51.4445C87.4749 52.1141 90.0287 54.8723 90.876 58.8785C91.8856 63.6382 92.684 68.4878 93.0324 73.3376C93.6066 81.4437 93.7402 89.5785 94.0564 97.6955C88.0387 99.6809 82.0244 101.644 76.01 103.607Z" fill="#AE9B7B"/>
</svg>
