<svg width="126" height="72" viewBox="0 0 126 72" fill="none" xmlns="http://www.w3.org/2000/svg">
<path d="M48.0847 51.2825C51.3272 45.4922 54.3472 40.3643 57.0916 35.0932C60.5643 28.4382 63.852 21.6908 67.1311 14.9395C69.721 9.59968 76.1182 8.20549 79.9805 12.8133C88.0885 22.5081 98.6767 29.1907 108.22 37.1369C108.535 37.4002 108.909 37.5977 109.325 37.8649C116.193 25.724 123.015 13.6863 129.851 1.59316C133.551 3.23789 136.718 4.64602 140.134 6.16481C139.575 7.09917 139.07 7.93426 138.578 8.78559C132.326 19.6571 125.997 30.4943 119.883 41.4478C118.579 43.7794 117.806 46.4907 117.251 49.1247C116.643 51.9505 115.488 54.1323 112.7 55.0841C109.805 56.0703 107.347 55.1011 105.251 53.0171C103.253 51.0382 101.445 48.8149 99.2164 47.1451C92.8702 42.3897 86.3618 37.8604 79.9164 33.2358C78.6166 32.2979 77.3369 31.338 75.8665 30.2522C73.5336 34.5746 71.4086 38.7529 69.0673 42.7938C64.7472 50.2448 60.3108 57.6337 55.8915 65.0303C55.3714 65.8998 54.7052 66.7043 54.0287 67.4631C48.9701 73.0838 42.3343 72.2631 38.8763 65.5203C35.0589 58.0829 31.1299 50.6884 27.6168 43.0983C22.0156 30.9792 13.114 21.4974 3.90126 12.2065C3.17469 11.4823 2.44813 10.7581 1.78644 9.98039C-1.38945 6.23322 0.267265 1.65131 5.15902 0.822282C8.81542 0.205284 12.0886 1.53706 15.1193 3.36797C22.0323 7.54215 27.7361 13.1642 31.9678 19.9011C36.39 26.9491 39.9336 34.5631 43.7748 41.9699C45.237 44.8317 46.472 47.788 48.0847 51.2825Z" fill="#AE9B7B"/>
</svg>
