<svg width="74" height="127" viewBox="0 0 74 127" fill="none" xmlns="http://www.w3.org/2000/svg">
<path d="M52.392 78.6118C49.7209 80.6594 47.5115 82.5841 45.0796 84.1649C39.416 87.8588 33.6287 86.1388 31.2792 79.8075C30.1085 76.6542 29.4985 73.1733 29.3253 69.8069C29.0451 64.393 29.3254 58.9545 29.3666 53.5242C29.3749 52.8689 29.3666 52.2219 29.3666 51.1735C28.4433 51.7141 27.7178 52.0499 27.0995 52.5086C15.4261 61.1496 0.875395 51.9434 0.133438 39.2726C-0.559055 27.4865 1.51021 16.0034 4.79955 4.72501C5.00565 4.02062 5.36842 3.3408 5.76413 2.71832C7.05019 0.654307 9.11937 -0.312143 11.271 0.0891924C13.3897 0.490528 15.2199 2.16136 15.3765 4.55299C15.5661 7.57529 15.426 10.6467 15.1787 13.669C14.6758 19.8201 13.8762 25.9467 13.4722 32.1059C13.3073 34.6614 13.4805 37.3561 14.1153 39.8296C15.1128 43.7201 17.6684 44.5638 20.9825 42.3195C24.1317 40.1818 27.1654 37.8639 30.2404 35.6197C31.0236 35.0464 31.7656 34.4238 32.5488 33.8423C35.022 32.024 37.6929 31.3361 40.5289 32.8595C43.3566 34.3829 44.3212 37.0121 44.0903 40.0344C43.6864 45.3009 43.101 50.551 42.6476 55.8175C42.2849 60.0438 41.9716 64.2701 41.6913 68.5046C41.6006 69.8069 41.6748 71.1092 41.6748 72.4197C41.9304 72.5426 42.1777 72.6655 42.4333 72.7883C44.9312 70.2738 47.4785 67.8084 49.9105 65.2284C51.4934 63.5494 52.8372 61.6492 54.3953 59.9374C56.3573 57.7833 58.8058 56.7922 61.6829 57.7587C64.5436 58.717 66.1924 60.9775 66.2006 63.836C66.2253 69.1762 65.8956 74.5247 65.5906 79.8649C65.1289 87.8834 64.4694 95.8938 64.0984 103.912C63.983 106.329 64.4776 108.794 64.8403 111.21C65.2443 113.864 66.9096 115.559 69.3745 116.583C73.4635 118.287 77.5938 118.025 81.691 116.788C84.3951 115.969 87.0248 114.896 89.9927 113.831C89.9927 116.796 90.0257 119.72 89.9515 122.644C89.9433 123.021 89.4568 123.578 89.0694 123.717C81.8064 126.322 74.4364 128.14 66.6623 126.166C57.9897 123.971 53.0514 118.59 52.3672 108.671C51.7324 99.5058 52.26 90.2587 52.2848 81.0525C52.2765 80.3318 52.3425 79.6274 52.392 78.6118Z" fill="#AE9B7B"/>
</svg>
