<svg width="96" height="58" viewBox="0 0 96 58" fill="none" xmlns="http://www.w3.org/2000/svg">
<path d="M47.3801 24.5287C47.994 25.0981 48.6875 25.6007 49.2044 26.2498C53.5424 31.6666 57.8543 37.103 62.1499 42.545C66.498 48.0567 64.224 55.0844 57.1627 56.453C51.7123 57.5104 45.9996 57.9933 40.4607 57.6825C24.6239 56.8053 9.40056 53.1704 -4.74216 45.7293C-10.6885 42.6032 -16.0189 38.6442 -20.4968 33.6129C-21.0355 33.0074 -21.526 32.0036 -21.4295 31.2614C-20.6712 25.1427 -19.7676 19.0444 -18.8143 12.2596C-10.1737 20.5715 -1.4631 28.0519 9.51745 32.3061C20.2761 36.4746 31.2421 39.6671 43.2942 40.9008C42.6978 39.8742 42.3752 39.229 41.9654 38.6494C39.9342 35.7928 37.8593 32.9691 35.8281 30.1126C31.8762 24.5553 29.2245 18.4015 27.6668 11.786C27.3204 10.3115 27.1331 8.70356 27.3414 7.22131C28.1083 1.92967 32.599 -0.898704 37.6922 0.697335C39.5444 1.27702 41.3917 2.11313 43.0016 3.19638C55.3469 11.499 69.2851 15.6234 83.5446 18.9593C86.4737 19.6435 89.353 20.5701 92.2421 21.4279C96.0883 22.5761 97.1278 26.6645 93.9727 29.143C92.289 30.4724 90.015 31.5632 87.9233 31.7445C83.5588 32.1208 79.092 32.1711 74.744 31.7082C70.0968 31.211 65.4462 30.2382 60.9369 28.9813C56.5106 27.7439 52.2652 25.8852 47.9342 24.3027C47.752 24.3784 47.5699 24.4541 47.3801 24.5287Z" fill="#AE9B7B"/>
</svg>
