<svg width="48" height="223" viewBox="0 0 48 223" fill="none" xmlns="http://www.w3.org/2000/svg">
<g filter="url(#filter0_d_491_3126)">
<path d="M28.1576 182.141C34.5241 178.079 40.4628 174.276 46.889 170.175C46.889 176.815 46.9388 182.827 46.8194 188.84C46.8094 189.507 45.8744 190.274 45.2178 190.791C41.1194 194.046 36.7822 197.043 32.8927 200.537C30.1074 203.045 27.7597 206.102 25.4519 209.088C21.8409 213.767 16.8968 215.678 11.9329 214.025C7.2874 212.482 4.19375 208.242 4.03458 202.797C3.91521 198.825 4.14398 194.843 4.13403 190.871C4.11414 155.661 7.27755 120.651 10.4111 85.6201C12.4702 62.585 13.7037 39.4703 15.3152 16.3953C15.4544 14.4144 15.4943 12.3935 15.9817 10.4922C17.1157 6.10219 20.0801 3.57371 24.5765 2.96647C31.8979 1.96105 39.2193 1.01538 46.879 0C46.879 2.95654 46.9686 6.24156 46.7995 9.5266C46.7696 10.1239 45.8048 10.9203 45.1084 11.189C41.9948 12.4035 38.7816 13.3592 35.7078 14.6433C34.8822 14.9917 33.9173 16.1763 33.8775 17.0026C32.8827 40.2069 31.9476 63.4112 31.122 86.6156C30.4058 106.843 29.8388 127.081 29.1922 147.309C28.8639 157.602 28.4859 167.895 28.1476 178.199C28.1278 179.353 28.1576 180.488 28.1576 182.141Z" fill="#AE9B7B"/>
</g>
<defs>
<filter id="filter0_d_491_3126" x="0" y="0" width="50.9027" height="222.61" filterUnits="userSpaceOnUse" color-interpolation-filters="sRGB">
<feFlood flood-opacity="0" result="BackgroundImageFix"/>
<feColorMatrix in="SourceAlpha" type="matrix" values="0 0 0 0 0 0 0 0 0 0 0 0 0 0 0 0 0 0 127 0" result="hardAlpha"/>
<feOffset dy="4"/>
<feGaussianBlur stdDeviation="2"/>
<feComposite in2="hardAlpha" operator="out"/>
<feColorMatrix type="matrix" values="0 0 0 0 0 0 0 0 0 0 0 0 0 0 0 0 0 0 0.25 0"/>
<feBlend mode="normal" in2="BackgroundImageFix" result="effect1_dropShadow_491_3126"/>
<feBlend mode="normal" in="SourceGraphic" in2="effect1_dropShadow_491_3126" result="shape"/>
</filter>
</defs>
</svg>
